<?xml version="1.0"?><!DOCTYPE svg  PUBLIC '-//W3C//DTD SVG 1.1//EN'  'http://www.w3.org/Graphics/SVG/1.1/DTD/svg11.dtd'><svg enable-background="new 0 0 29.004 40.941" height="40.941px" id="Layer_1" version="1.1" viewBox="0 0 29.004 40.941" width="29.004px" xml:space="preserve" xmlns="http://www.w3.org/2000/svg" xmlns:xlink="http://www.w3.org/1999/xlink"><g><g><path d="M21.227,40.941H0.75c-0.414,0-0.75-0.336-0.75-0.75V16.553c0-0.292,0.169-0.558,0.434-0.68    c4.11-1.911,8.036-1.105,11.833-0.328l1.215,0.245c0.008,0.002,0.016,0.004,0.023,0.005c0.042-0.01,0.087-0.016,0.132-0.018    l7.553-0.364c0.202-0.017,0.405,0.065,0.553,0.206c0.148,0.142,0.232,0.338,0.232,0.543v24.029    C21.977,40.605,21.641,40.941,21.227,40.941z M1.5,39.441h18.977V16.949l-6.767,0.326c-0.068,0.007-0.139-0.003-0.205-0.018    c-0.1,0.021-0.207,0.023-0.313,0.005l-1.227-0.248C8.391,16.282,5.006,15.589,1.5,17.042V39.441z"/></g><g><path d="M16.527,32.215h-6.77c-0.39,0-0.714-0.299-0.748-0.687l-0.58-6.88c-0.025-0.3,0.132-0.586,0.398-0.726l3.827-2.018    c0.165-0.088,0.348-0.107,0.517-0.068c0.152-0.035,0.316-0.021,0.469,0.045l3.189,1.4c0.272,0.119,0.448,0.389,0.448,0.687v7.496    C17.277,31.879,16.941,32.215,16.527,32.215z M10.447,30.715h5.33v-6.256l-2.591-1.139l-3.219,1.697L10.447,30.715z"/></g><g><path d="M22.065,37.417c-0.355,0-0.671-0.254-0.737-0.616c-0.074-0.407,0.196-0.798,0.604-0.872    c0.492-0.089,1.01-0.14,1.531-0.188c2.098-0.199,3.405-0.416,3.845-2.282c0.298-1.268,0.193-2.717,0.091-4.117    c-0.025-0.342-0.05-0.683-0.069-1.02c-0.02-0.346-0.142-0.724-0.271-1.124c-0.161-0.501-0.328-1.019-0.343-1.589    c-0.064-2.367-0.101-3.744-0.559-4.192c-0.456-0.446-1.825-0.446-4.091-0.446c-0.414,0-0.75-0.336-0.75-0.75s0.336-0.75,0.75-0.75    c5.649,0,5.994,0.337,6.147,6.012c0.011,0.442,0.139,0.838,0.273,1.256c0.152,0.473,0.31,0.962,0.341,1.499    c0.019,0.329,0.043,0.661,0.067,0.995c0.11,1.514,0.224,3.079-0.127,4.57c-0.709,3.009-3.179,3.243-5.164,3.432    c-0.477,0.045-0.953,0.09-1.404,0.172C22.155,37.413,22.109,37.417,22.065,37.417z"/></g><g><path d="M10.988,13.248c-0.242,0-0.479-0.117-0.624-0.333c-1.375-2.057-1.5-4.127-0.368-6.154c1.226-2.2,0.866-3.919-1.134-5.409    C8.53,1.104,8.461,0.634,8.709,0.302c0.249-0.331,0.717-0.4,1.05-0.153c2.607,1.943,3.142,4.482,1.547,7.343    c-0.858,1.537-0.761,2.996,0.305,4.59c0.23,0.345,0.138,0.811-0.207,1.04C11.277,13.207,11.132,13.248,10.988,13.248z"/></g><g><path d="M16.024,13.248c-0.414,0-0.75-0.336-0.75-0.75c0-0.397-0.04-0.812-0.078-1.226c-0.096-1.041-0.195-2.117,0.223-3.068    c1.07-2.425,0.65-3.911-1.45-5.127c-0.358-0.208-0.48-0.667-0.273-1.025c0.208-0.358,0.669-0.479,1.025-0.273    c2.772,1.606,3.449,3.906,2.071,7.031c-0.262,0.595-0.184,1.435-0.102,2.324c0.042,0.461,0.084,0.922,0.084,1.364    C16.774,12.912,16.438,13.248,16.024,13.248z"/></g><g><path d="M5.955,14.256c-0.275,0-0.54-0.151-0.671-0.414l-1.326-2.65c-0.1-0.201-0.105-0.438-0.013-0.643l0.096-0.214    c1.278-2.837,1.91-4.532,0.043-6.364c-0.295-0.29-0.3-0.765-0.01-1.061C4.366,2.616,4.84,2.61,5.136,2.9    c2.666,2.617,1.502,5.321,0.324,7.939l1.165,2.33c0.186,0.37,0.036,0.82-0.334,1.007C6.183,14.23,6.068,14.256,5.955,14.256z"/></g><g><path d="M13.338,22.983c-0.414,0-0.75-0.336-0.75-0.75v-5.37c0-0.414,0.336-0.75,0.75-0.75s0.75,0.336,0.75,0.75v5.37    C14.088,22.647,13.752,22.983,13.338,22.983z"/></g></g></svg>