<?xml version="1.0"?><!DOCTYPE svg  PUBLIC '-//W3C//DTD SVG 1.1//EN'  'http://www.w3.org/Graphics/SVG/1.1/DTD/svg11.dtd'><svg enable-background="new 0 0 26.339 38.257" height="38.257px" id="Layer_1" version="1.1" viewBox="0 0 26.339 38.257" width="26.339px" xml:space="preserve" xmlns="http://www.w3.org/2000/svg" xmlns:xlink="http://www.w3.org/1999/xlink"><g><g><path d="M19.386,38.257H7.27c-0.344,0-0.644-0.233-0.728-0.567L2.371,21.074c-0.101-0.402,0.143-0.809,0.545-0.91    c0.4-0.1,0.809,0.143,0.91,0.545l4.028,16.048H18.79l3.719-16.035c0.094-0.404,0.5-0.655,0.899-0.561    c0.404,0.093,0.655,0.496,0.562,0.9l-3.854,16.615C20.037,38.017,19.734,38.257,19.386,38.257z"/></g><g><path d="M2.749,21.275c-0.605,0-1.162-0.238-1.653-0.448c-0.194-0.083-0.389-0.167-0.583-0.231    c-0.393-0.131-0.605-0.556-0.475-0.949c0.131-0.394,0.554-0.607,0.948-0.475c0.233,0.077,0.466,0.176,0.699,0.275    c0.396,0.17,0.758,0.347,1.07,0.327c5.902-0.05,11.804-0.139,17.707-0.228l5.115-0.077c0.421-0.007,0.755,0.325,0.761,0.739    s-0.325,0.754-0.739,0.761l-5.114,0.076c-5.905,0.089-11.811,0.179-17.716,0.229C2.762,21.275,2.755,21.275,2.749,21.275z"/></g><g><path d="M4.443,16.943c-0.009,0-0.019,0-0.028,0C4,16.927,3.677,16.579,3.693,16.165c0.173-4.615,4.71-8.557,10.115-8.786    c2.174-0.081,4.247,0.694,5.889,2.212c1.811,1.675,2.858,4.01,2.95,6.575c0.015,0.414-0.31,0.762-0.724,0.776    c-0.367,0.029-0.761-0.308-0.776-0.723c-0.076-2.163-0.953-4.126-2.469-5.527c-1.347-1.245-3.075-1.891-4.806-1.814    c-4.643,0.197-8.536,3.491-8.68,7.343C5.177,16.625,4.844,16.943,4.443,16.943z"/></g><g><path d="M22.37,17.62c-0.498,0-0.995-0.002-1.493-0.01c-4.632-0.075-9.264-0.155-13.896-0.236l-5.573-0.097    c-0.415-0.007-0.744-0.349-0.737-0.763c0.007-0.415,0.359-0.767,0.763-0.737l5.574,0.097c4.631,0.081,9.262,0.161,13.893,0.236    c0.915,0.015,1.827,0.01,2.74,0.006l1.277-0.003c0.414,0,0.75,0.336,0.75,0.75s-0.336,0.75-0.75,0.75l-1.271,0.003    C23.221,17.618,22.796,17.62,22.37,17.62z"/></g><g><path d="M13.504,17.277c-0.414,0-0.75-0.336-0.75-0.75L12.741,4.22l-0.308-0.16c-0.22-0.116-0.367-0.332-0.396-0.579    s0.067-0.491,0.256-0.653l3.071-2.646c0.314-0.27,0.788-0.236,1.059,0.078c0.271,0.313,0.235,0.787-0.078,1.058l-2.277,1.961    c0.117,0.135,0.186,0.31,0.186,0.494v12.753C14.254,16.941,13.918,17.277,13.504,17.277z"/></g><g><path d="M6.791,15.936c-0.167,0-0.335-0.056-0.474-0.169c-0.321-0.262-0.368-0.735-0.106-1.055l3.021-3.694    c0.262-0.321,0.736-0.366,1.055-0.105c0.321,0.263,0.368,0.735,0.105,1.056L7.372,15.66C7.224,15.842,7.008,15.936,6.791,15.936z"/></g></g></svg>